<?xml version="1.0" standalone="no"?>
<!DOCTYPE svg PUBLIC "-//W3C//DTD SVG 20010904//EN"
 "http://www.w3.org/TR/2001/REC-SVG-20010904/DTD/svg10.dtd">
<svg version="1.0" xmlns="http://www.w3.org/2000/svg"
 width="876.000000pt" height="620.000000pt" viewBox="0 0 876.000000 620.000000"
 preserveAspectRatio="xMidYMid meet">

<g transform="translate(0.000000,620.000000) scale(0.100000,-0.100000)"
fill="#000000" stroke="none">
<path d="M5427 4777 c-3 -7 -2 -99 1 -205 4 -150 8 -192 19 -196 7 -3 16 0 19
7 2 7 3 100 2 207 -3 170 -5 195 -19 198 -9 2 -19 -3 -22 -11z"/>
<path d="M4030 4686 c-249 -44 -493 -170 -671 -346 -132 -130 -209 -259 -274
-453 -114 -344 -95 -625 64 -952 110 -225 301 -407 557 -532 164 -79 272 -105
471 -110 124 -4 187 -1 265 12 202 33 401 117 548 230 152 117 325 335 389
490 161 387 103 849 -149 1184 -178 236 -424 394 -720 462 -111 26 -373 34
-480 15z m340 -50 c0 -20 -48 -56 -75 -56 -31 0 -118 -31 -193 -69 -47 -24
-86 -35 -150 -42 -108 -12 -111 -13 -197 -57 -51 -26 -83 -36 -120 -36 -47 -1
-115 19 -115 33 0 9 147 106 205 134 74 36 190 73 275 87 41 6 82 13 90 15 8
1 75 3 148 4 108 1 132 -2 132 -13z m100 -6 c0 -15 -68 -73 -99 -86 -14 -5
-52 -16 -83 -23 -31 -7 -75 -26 -99 -43 -71 -51 -123 -69 -229 -77 -91 -7
-101 -10 -134 -39 -60 -52 -95 -66 -166 -66 -51 0 -76 6 -117 27 -57 29 -82
55 -42 43 108 -34 132 -38 178 -26 25 6 64 22 86 34 57 33 103 46 195 55 64 7
99 18 177 54 54 26 124 51 156 57 44 9 66 20 92 46 19 19 35 39 35 44 0 6 11
10 25 10 14 0 25 -5 25 -10z m431 -188 l22 -19 -59 -5 c-81 -8 -159 -37 -257
-97 l-83 -51 -100 0 c-283 0 -410 -124 -223 -218 73 -37 101 -40 266 -27 l91
7 90 -41 c101 -47 182 -64 257 -56 79 9 110 -13 162 -115 46 -90 108 -160 143
-160 32 0 71 24 120 74 24 25 48 46 52 46 23 0 0 -38 -61 -100 -62 -63 -72
-70 -108 -70 -51 0 -71 20 -123 120 -63 120 -120 160 -229 160 -56 0 -141 22
-232 61 -80 34 -145 40 -285 25 -97 -10 -139 1 -196 52 -48 43 -68 80 -68 125
0 49 32 76 136 116 75 29 105 35 194 39 l105 4 81 50 c80 49 205 97 255 98 15
0 37 -8 50 -18z m185 -175 c50 -50 117 -131 148 -179 55 -84 126 -226 126
-251 0 -7 -26 -39 -59 -71 -81 -80 -93 -77 -152 42 -82 166 -114 186 -289 187
l-125 1 -64 39 c-70 43 -76 44 -296 33 -84 -4 -190 25 -207 55 -12 23 7 42 82
79 37 19 68 23 180 28 l135 5 64 40 c95 59 180 84 281 85 l85 0 91 -93z
m-1612 -197 c58 -54 90 -128 83 -191 -11 -94 -64 -160 -194 -242 -39 -25 -83
-61 -97 -79 -14 -18 -40 -53 -58 -78 -33 -43 -71 -71 -115 -85 -41 -12 -26 22
19 47 24 13 58 45 78 73 49 69 112 131 161 155 55 29 126 96 150 142 42 83 5
210 -74 253 -34 18 -38 18 -109 2 -100 -24 -103 -24 -103 -7 0 19 96 49 163
49 48 1 56 -3 96 -39z m613 -60 c47 -36 53 -45 53 -78 0 -48 -20 -86 -47 -90
-15 -2 -33 12 -67 53 -25 31 -47 67 -47 78 -5 89 25 99 108 37z m-660 4 c63
-48 79 -113 44 -182 -28 -54 -83 -106 -150 -142 -39 -21 -90 -64 -148 -123
-65 -68 -89 -87 -91 -74 -2 9 8 87 23 173 25 151 73 312 99 333 14 12 125 38
165 40 13 1 39 -10 58 -25z m1148 -188 c32 -14 65 -18 158 -17 l119 1 33 -33
c40 -40 58 -99 59 -192 0 -62 -7 -86 -56 -210 -33 -82 -65 -184 -78 -245 -35
-171 -69 -220 -153 -220 -47 0 -142 51 -199 107 -51 50 -107 147 -139 240 -27
78 -58 128 -139 225 -109 128 -126 216 -58 294 58 65 90 74 273 70 108 -2 149
-6 180 -20z m-1004 -107 c12 -6 34 -38 50 -72 23 -48 29 -76 29 -125 0 -60 -2
-66 -35 -99 -23 -23 -42 -33 -57 -31 -20 3 -24 10 -30 68 -4 36 -12 81 -17
100 -18 59 -14 121 11 147 25 27 23 26 49 12z m1492 -80 c56 -25 85 -135 53
-198 -24 -46 -84 -93 -114 -89 -22 2 -28 9 -30 36 -2 18 4 64 12 102 9 38 16
87 16 109 0 29 5 41 18 44 9 3 18 5 19 6 1 0 13 -4 26 -10z m-1641 -60 c28
-15 55 -82 69 -170 14 -94 31 -126 115 -218 81 -90 106 -143 112 -237 4 -68 2
-76 -41 -170 -24 -55 -50 -126 -57 -159 -16 -75 -29 -100 -42 -87 -16 16 10
130 52 222 21 47 43 106 50 130 25 94 -8 181 -115 299 -76 83 -93 118 -106
208 -11 78 -36 141 -61 154 -16 9 -26 3 -66 -38 -26 -27 -68 -74 -94 -105 -46
-54 -84 -79 -141 -94 -47 -11 -30 25 18 41 26 9 57 33 90 71 148 167 166 180
217 153z m-28 -101 c10 -14 16 -44 16 -84 0 -72 34 -148 102 -231 131 -158
141 -217 64 -382 -26 -57 -50 -119 -53 -138 -3 -18 -9 -33 -13 -33 -14 0 -165
165 -201 220 -40 61 -174 324 -195 382 -14 41 -8 51 37 61 41 10 78 45 125
118 46 72 78 109 93 109 6 0 17 -10 25 -22z m1776 -702 c0 -24 -14 -27 -148
-35 -144 -9 -200 -29 -277 -100 -71 -65 -87 -72 -209 -86 -128 -15 -183 -35
-261 -95 -56 -43 -93 -60 -133 -60 -15 0 -40 -9 -57 -20 -18 -12 -47 -20 -70
-20 l-40 0 50 30 c28 16 78 36 111 43 42 10 80 29 122 60 84 62 156 87 274 96
105 8 112 11 203 90 82 70 135 88 281 96 65 3 121 8 123 11 10 10 31 3 31 -10z
m-180 -159 c-82 -81 -109 -100 -200 -144 -209 -101 -339 -133 -529 -132 -131
0 -183 11 -112 23 56 9 96 30 149 78 61 56 100 69 229 78 131 9 193 33 257
100 56 59 134 86 256 89 l45 0 -95 -92z"/>
<path d="M4010 3985 c0 -31 65 -106 85 -99 18 7 28 38 21 62 -6 18 -73 62 -95
62 -6 0 -11 -11 -11 -25z m78 -44 c3 -8 -1 -12 -9 -9 -7 2 -15 10 -17 17 -3 8
1 12 9 9 7 -2 15 -10 17 -17z"/>
<path d="M4243 3810 c-82 -17 -123 -64 -123 -140 0 -54 25 -100 100 -185 43
-49 79 -106 121 -191 101 -207 168 -292 263 -335 52 -24 77 -24 108 0 25 20
35 47 82 240 14 57 45 147 68 200 35 81 42 109 46 179 8 164 -34 210 -183 198
-67 -6 -92 -3 -145 14 -72 24 -263 35 -337 20z m342 -62 c57 -14 97 -19 140
-15 74 7 104 -6 127 -53 30 -60 23 -114 -37 -281 -31 -85 -65 -194 -76 -244
-11 -49 -24 -102 -30 -117 -32 -79 -93 -76 -178 10 -48 49 -67 80 -126 210
-39 84 -86 173 -105 198 -19 24 -55 70 -80 101 -41 51 -45 61 -45 111 0 47 4
57 25 73 14 11 45 23 70 28 67 13 224 3 315 -21z"/>
<path d="M3515 3668 c-3 -13 1 -45 10 -73 8 -27 15 -64 15 -82 0 -40 19 -83
37 -83 21 0 53 61 53 100 0 19 -13 63 -30 98 -24 52 -33 62 -54 62 -18 0 -27
-7 -31 -22z m76 -89 c10 -31 9 -48 -1 -81 l-13 -43 -12 70 c-7 39 -15 86 -19
105 l-7 35 20 -23 c12 -13 26 -42 32 -63z"/>
<path d="M5027 3604 c-4 -4 -7 -24 -7 -44 0 -20 -7 -59 -15 -86 -8 -27 -15
-59 -15 -71 0 -37 45 -30 87 12 33 33 35 39 31 83 -3 26 -11 61 -19 77 -14 29
-47 44 -62 29z m53 -110 c0 -33 -33 -84 -55 -84 -10 0 -9 13 6 61 10 33 19 73
20 87 l1 27 13 -30 c8 -16 14 -44 15 -61z"/>
<path d="M6063 4628 c-6 -7 -52 -84 -102 -171 -88 -149 -101 -187 -67 -187 16
0 219 348 210 361 -8 13 -30 11 -41 -3z"/>
<path d="M5307 4240 c-20 -4 -39 -9 -42 -12 -2 -2 14 -29 36 -59 49 -65 129
-228 158 -321 52 -172 66 -397 36 -572 -18 -105 -67 -261 -106 -338 -16 -32
-29 -60 -29 -64 0 -4 57 -4 128 -1 135 5 203 22 287 72 142 83 253 233 291
393 22 88 21 256 0 347 -52 219 -211 394 -418 460 -66 22 -110 28 -216 32 -88
4 -130 9 -123 16 6 6 59 8 138 5 101 -4 145 -11 208 -32 214 -69 363 -227 427
-451 18 -66 22 -104 22 -215 0 -119 -4 -145 -28 -217 -49 -150 -158 -285 -290
-357 -109 -61 -184 -79 -329 -80 -113 -1 -130 -3 -139 -19 -5 -10 -7 -21 -3
-25 12 -12 221 -14 272 -4 133 29 276 111 379 218 105 109 174 270 191 449 l8
80 370 5 c362 5 370 5 370 25 0 20 -8 20 -372 23 l-373 2 -5 28 c-66 320 -252
531 -533 603 -78 20 -237 25 -315 9z"/>
<path d="M2923 4140 c-163 -29 -321 -148 -399 -301 -23 -47 -48 -131 -59 -201
l-6 -38 -447 0 c-246 0 -453 -4 -461 -9 -8 -5 -11 -16 -8 -25 6 -14 53 -16
457 -16 l450 0 9 -22 c5 -13 16 -57 25 -99 41 -188 208 -352 411 -404 67 -17
190 -21 180 -5 -3 6 -37 10 -74 10 -242 0 -475 205 -512 450 -41 274 105 529
356 622 49 18 82 22 182 22 67 1 116 4 110 7 -22 12 -161 18 -214 9z"/>
<path d="M2925 4086 c-124 -33 -192 -71 -267 -149 -53 -55 -58 -76 -28 -114
11 -14 20 -33 20 -42 0 -25 -38 -81 -54 -81 -26 0 -29 21 -7 44 26 28 27 52 2
65 -16 9 -21 5 -36 -31 -28 -70 -40 -205 -27 -300 30 -208 160 -343 392 -407
86 -24 145 -28 138 -8 -3 6 -13 36 -22 65 -10 28 -22 52 -27 52 -14 0 -30 -49
-27 -79 2 -20 -1 -26 -17 -26 -17 0 -20 6 -19 47 0 34 7 55 28 82 27 36 27 36
15 116 -7 51 -9 126 -5 203 4 67 6 139 6 159 0 20 4 39 10 43 5 3 10 17 10 31
0 22 -4 24 -43 24 -113 0 -175 99 -131 210 37 91 139 115 228 55 l37 -25 11
25 c7 16 8 29 2 34 -17 16 -137 20 -189 7z m-155 -142 c0 -17 -22 -14 -28 4
-2 7 3 12 12 12 9 0 16 -7 16 -16z m-52 -77 c2 -10 -3 -17 -12 -17 -10 0 -16
9 -16 21 0 24 23 21 28 -4z m61 -272 c36 -18 55 -64 48 -113 -20 -122 -197
-104 -197 20 1 84 75 132 149 93z m-84 -309 c38 -16 60 -46 70 -93 5 -26 3
-33 -9 -33 -10 0 -19 12 -22 29 -8 39 -38 70 -75 78 -15 3 -34 12 -40 19 -9
11 -6 14 15 14 15 0 42 -6 61 -14z m125 -16 c0 -5 -4 -10 -10 -10 -5 0 -10 5
-10 10 0 6 5 10 10 10 6 0 10 -4 10 -10z"/>
<path d="M2686 3554 c-43 -42 -21 -114 34 -114 59 0 94 76 52 113 -23 21 -66
22 -86 1z"/>
<path d="M2900 4013 c-28 -25 -34 -38 -38 -86 -4 -49 -2 -58 21 -81 27 -27 83
-42 121 -32 19 5 29 19 45 68 12 34 21 71 21 83 0 33 -43 67 -93 72 -38 5 -48
1 -77 -24z"/>
<path d="M6430 3994 c-52 -19 -128 -46 -167 -60 -69 -25 -92 -47 -60 -60 14
-5 334 101 354 117 16 14 5 39 -16 38 -9 0 -59 -16 -111 -35z"/>
<path d="M6172 3198 c2 -18 32 -32 183 -89 156 -58 182 -66 195 -53 9 9 11 17
4 24 -11 11 -357 140 -375 140 -6 0 -9 -10 -7 -22z"/>
<path d="M5944 2886 c-7 -19 246 -328 265 -324 8 2 16 8 18 14 6 19 -246 324
-268 324 -5 0 -12 -7 -15 -14z"/>
<path d="M3037 2780 c-38 -30 -52 -80 -34 -123 16 -38 32 -52 47 -42 7 4 5 14
-5 28 -24 35 -19 82 11 106 37 29 70 26 105 -8 38 -38 40 -88 5 -120 -14 -13
-29 -20 -35 -16 -18 11 -12 24 19 40 24 12 28 19 21 33 -5 9 -12 25 -15 35 -3
9 -17 22 -30 29 -57 25 -107 -59 -56 -95 11 -8 17 -17 14 -20 -13 -13 26 -57
50 -57 34 0 82 44 90 80 7 39 -18 104 -52 130 -33 27 -101 27 -135 0z m90 -86
c8 -21 -13 -42 -28 -27 -13 13 -5 43 11 43 6 0 13 -7 17 -16z"/>
<path d="M5437 2734 c-9 -9 -9 -102 0 -267 5 -99 10 -130 21 -134 8 -3 18 0
23 8 12 19 11 183 -1 195 -5 5 -10 52 -12 103 -3 87 -12 114 -31 95z"/>
<path d="M3220 2615 c-12 -14 -10 -44 5 -92 6 -17 3 -23 -9 -23 -9 0 -16 8
-16 18 -1 24 -26 55 -39 47 -20 -11 -12 -61 14 -89 29 -31 65 -34 90 -6 18 20
18 23 2 65 -14 38 -14 45 -2 45 8 0 15 -8 15 -19 0 -22 25 -45 40 -36 18 11
11 55 -15 80 -27 28 -66 32 -85 10z"/>
<path d="M3302 2485 c-56 -68 -58 -75 -40 -93 9 -9 16 -8 30 5 16 14 23 15 38
5 34 -21 78 -15 96 13 22 34 12 67 -34 103 l-38 30 -52 -63z m83 -30 c0 -22
-14 -28 -34 -16 -12 8 -13 12 -1 26 16 20 35 14 35 -10z"/>
<path d="M3423 2391 c-24 -38 -43 -73 -43 -77 0 -5 19 -21 43 -36 39 -25 43
-26 55 -11 10 14 8 20 -13 38 l-25 20 34 55 c31 49 33 55 18 67 -10 7 -19 12
-22 13 -3 0 -24 -31 -47 -69z"/>
<path d="M4887 2390 c-31 -20 -45 -35 -41 -43 31 -52 90 -127 101 -127 6 0 31
18 54 40 38 36 41 43 36 77 -8 44 -31 70 -72 78 -23 5 -41 -1 -78 -25z m91
-32 c17 -17 15 -53 -4 -69 -14 -12 -20 -9 -40 16 -13 17 -24 35 -24 42 0 22
49 30 68 11z"/>
<path d="M3560 2396 c0 -2 -16 -38 -35 -80 l-34 -76 51 -26 c41 -21 52 -23 59
-12 14 22 10 29 -21 39 -16 6 -30 15 -30 19 0 17 20 21 41 9 17 -9 23 -8 30 2
14 22 11 28 -16 35 -29 7 -28 31 1 26 10 -2 26 -4 34 -5 8 -1 16 5 17 13 2 10
-13 24 -42 38 -46 22 -55 25 -55 18z"/>
<path d="M3647 2258 c-14 -45 -25 -83 -24 -84 1 -1 11 -4 23 -8 17 -5 23 1 35
41 l16 48 19 -60 c15 -47 23 -60 39 -60 16 0 26 16 47 78 l28 78 -23 8 c-19 8
-24 4 -36 -32 -15 -45 -12 -48 -45 36 -25 63 -47 50 -79 -45z"/>
<path d="M4752 2321 c-11 -6 -6 -24 23 -82 21 -41 39 -76 41 -78 2 -3 26 6 54
19 43 20 48 25 39 42 -6 11 -17 17 -25 14 -8 -3 -21 -9 -29 -12 -10 -4 -22 10
-42 50 -27 56 -36 63 -61 47z"/>
<path d="M4646 2284 c-22 -8 -41 -16 -44 -18 -2 -3 8 -41 23 -86 20 -61 31
-80 42 -76 8 3 19 6 24 6 5 0 4 12 -2 26 -13 36 -6 40 29 14 21 -15 37 -20 52
-15 l22 7 -25 26 c-18 20 -23 32 -17 47 11 29 -5 64 -35 75 -15 6 -27 10 -28
9 -1 0 -20 -7 -41 -15z m59 -54 c0 -22 -39 -19 -43 3 -3 15 1 18 20 15 12 -2
23 -10 23 -18z"/>
<path d="M3846 2282 c-10 -18 -39 -162 -33 -168 10 -10 93 -17 121 -10 14 3
32 18 40 33 l14 27 7 -32 c16 -73 111 -97 166 -43 20 20 29 39 29 61 0 22 -9
41 -29 61 -52 52 -140 35 -164 -31 -4 -10 -6 -8 -6 7 -1 34 -42 72 -93 88 -26
8 -49 11 -52 7z m78 -68 c9 -8 16 -22 16 -29 0 -29 -53 -58 -72 -40 -10 10 14
85 28 85 7 0 20 -7 28 -16z m200 -30 c21 -20 20 -43 -1 -66 -23 -25 -50 -23
-69 7 -15 23 -15 27 0 50 19 29 47 32 70 9z"/>
<path d="M4547 2253 c-4 -3 -7 -20 -7 -37 0 -56 -15 -62 -41 -17 -28 51 -45
52 -54 3 -10 -63 -20 -68 -39 -18 -14 37 -22 46 -42 46 -13 0 -24 -5 -24 -10
0 -7 -6 -7 -19 0 -11 5 -40 10 -65 10 l-46 0 -2 -65 c-1 -36 -2 -75 -2 -87 -1
-16 6 -24 22 -26 18 -3 22 1 22 22 0 37 17 41 35 6 11 -21 23 -30 40 -30 29 0
29 2 12 38 -11 23 -11 32 3 59 l17 32 26 -60 c22 -51 30 -60 49 -57 17 2 25
13 33 48 l11 45 24 -43 c23 -42 35 -49 56 -34 9 6 34 126 34 166 0 16 -31 22
-43 9z m-252 -83 c0 -8 -10 -16 -22 -18 -22 -3 -32 16 -16 32 12 11 38 2 38
-14z"/>
</g>
</svg>
